<svg width="18" height="18" viewBox="0 0 18 18" fill="none" xmlns="http://www.w3.org/2000/svg">
<path d="M4.4837 2.94971L3.97135 3.90487C3.96437 3.92452 3.95428 3.96885 3.95428 4.00427V9.0541H5.01543V4.00427C5.01543 3.96924 5.00509 3.92465 4.98726 3.88186L4.4837 2.94971Z" fill="white"/>
<path d="M3.95428 10.3816C3.95428 10.6753 4.19133 10.9141 4.48292 10.9141C4.77658 10.9141 5.01543 10.6753 5.01543 10.3816V9.5835H3.95428V10.3816Z" fill="white"/>
<path d="M13.7784 5.92181L14.1411 6.09369V2.57498C14.1411 2.54047 14.1129 2.51229 14.0783 2.51229H12.9494C12.9345 2.51229 12.9217 2.50619 12.9075 2.50385V6.12615L13.3906 5.92C13.5041 5.86662 13.6484 5.86558 13.7784 5.92181Z" fill="white"/>
<path d="M10.3437 12.7037V13.9392C10.3437 14.2343 10.4592 14.5125 10.6691 14.7224C10.8579 14.9086 11.1 15.0158 11.3568 15.0384C11.9266 14.993 12.3781 14.5201 12.3781 13.9387V11.4057C12.3475 11.4006 12.3158 11.3964 12.2855 11.3909C11.9554 11.3348 11.622 11.2515 11.2973 11.1437C11.1556 11.0973 11.0241 11.0183 10.9178 10.9157C10.8612 10.8619 10.8105 10.7981 10.7596 10.7162C10.6722 10.5721 10.6231 10.4128 10.6148 10.252C10.6125 10.2314 10.6117 10.2114 10.6112 10.1902L10.6403 8.63369L9.89906 8.28284C9.72276 8.1965 9.61858 8.02537 9.62298 7.83434C9.62737 7.64434 9.73879 7.47929 9.91379 7.40355L12.3781 6.35206V1.48773C12.3781 1.45865 12.3543 1.435 12.3254 1.435H2.13211C2.10316 1.435 2.07938 1.45865 2.07938 1.48773V12.439H10.079C10.2253 12.439 10.3437 12.5576 10.3437 12.7037ZM5.54485 9.31879V10.3816C5.54485 10.9671 5.06843 11.4435 4.48293 11.4435C3.89949 11.4435 3.42488 10.9671 3.42488 10.3816V9.31879V4.00425C3.42488 3.89774 3.44892 3.78452 3.49442 3.67685L4.24976 2.26608C4.29577 2.18026 4.38521 2.12662 4.48267 2.12649C4.58012 2.12649 4.66982 2.17987 4.71584 2.26556L5.46446 3.65411C5.52106 3.78568 5.54485 3.89865 5.54485 4.00425V9.31879ZM8.71408 11.1641H6.59644C6.45013 11.1641 6.33173 11.0456 6.33173 10.8994C6.33173 10.7532 6.45013 10.6347 6.59644 10.6347H8.71408C8.8604 10.6347 8.97879 10.7532 8.97879 10.8994C8.97879 11.0456 8.8604 11.1641 8.71408 11.1641ZM8.71408 9.57587H6.59644C6.45013 9.57587 6.33173 9.45734 6.33173 9.31116C6.33173 9.16498 6.45013 9.04645 6.59644 9.04645H8.71408C8.8604 9.04645 8.97879 9.16498 8.97879 9.31116C8.97879 9.45734 8.8604 9.57587 8.71408 9.57587ZM8.71408 7.98763H6.59644C6.45013 7.98763 6.33173 7.86911 6.33173 7.72292C6.33173 7.57674 6.45013 7.45822 6.59644 7.45822H8.71408C8.8604 7.45822 8.97879 7.57674 8.97879 7.72292C8.97879 7.86911 8.8604 7.98763 8.71408 7.98763ZM8.71408 6.3994H6.59644C6.45013 6.3994 6.33173 6.28087 6.33173 6.13469C6.33173 5.98851 6.45013 5.86998 6.59644 5.86998H8.71408C8.8604 5.86998 8.97879 5.98851 8.97879 6.13469C8.97879 6.28087 8.8604 6.3994 8.71408 6.3994ZM8.71408 4.81116H6.59644C6.45013 4.81116 6.33173 4.69264 6.33173 4.54645C6.33173 4.40027 6.45013 4.28175 6.59644 4.28175H8.71408C8.8604 4.28175 8.97879 4.40027 8.97879 4.54645C8.97879 4.69264 8.8604 4.81116 8.71408 4.81116ZM8.71408 3.22293H6.59644C6.45013 3.22293 6.33173 3.1044 6.33173 2.95822C6.33173 2.81204 6.45013 2.69351 6.59644 2.69351H8.71408C8.8604 2.69351 8.97879 2.81204 8.97879 2.95822C8.97879 3.1044 8.8604 3.22293 8.71408 3.22293Z" fill="white"/>
<path d="M10.2196 7.84868L11.0103 8.22297C11.014 8.22454 11.0181 8.22499 11.0217 8.22674L13.5196 9.41081L16.8786 7.97703L13.5814 6.41412L10.2196 7.84868Z" fill="white"/>
<path d="M13.6174 9.93588C13.6059 9.93834 13.5939 9.93803 13.5823 9.9396C13.5621 9.9423 13.5421 9.94606 13.5214 9.94606C13.5206 9.94606 13.5197 9.94577 13.5188 9.94577C13.4959 9.94564 13.4729 9.94162 13.4499 9.93813C13.4384 9.93639 13.4269 9.9366 13.4154 9.93401C13.3811 9.92626 13.3472 9.91483 13.3144 9.8994L11.1654 8.88226L11.1404 10.1801C11.1419 10.1902 11.143 10.2092 11.1432 10.2194C11.1461 10.2961 11.1688 10.3701 11.2107 10.4395C11.2355 10.479 11.2593 10.5099 11.2841 10.5334C11.3348 10.5824 11.396 10.6189 11.4632 10.6409C11.7634 10.7406 12.0705 10.8173 12.3771 10.8696C12.5453 10.9001 12.7162 10.9238 12.9016 10.9428C13.0262 10.9537 13.1533 10.9628 13.2839 10.9673C13.5501 10.9771 13.8058 10.9735 14.0439 10.9569C14.0441 10.9569 14.0858 10.9546 14.086 10.9545C14.5772 10.9219 15.0588 10.8405 15.5176 10.7124C15.6197 10.6846 15.7037 10.6272 15.7624 10.5462C15.7704 10.5351 15.7795 10.5245 15.7893 10.5148C15.8423 10.4309 15.8686 10.3449 15.871 10.2578L15.8955 8.97256L13.7099 9.90496C13.6805 9.91877 13.6494 9.92902 13.6174 9.93588Z" fill="white"/>
<path d="M9.81427 13.9392V12.9684H1.12137V13.9392C1.12137 14.2346 1.23692 14.5126 1.44656 14.7224C1.65879 14.9318 1.93746 15.0478 2.22982 15.0478H10.248C9.9673 14.7433 9.81427 14.3527 9.81427 13.9392Z" fill="white"/>
<path d="M14.0622 11.2209L14.0806 11.485C13.9177 11.4963 13.7476 11.5019 13.5721 11.5019C13.4713 11.5019 13.3689 11.5001 13.265 11.4964C13.1443 11.492 13.0261 11.4831 12.9075 11.4734V13.9387C12.9075 14.7399 12.3288 15.4074 11.5675 15.5481C11.5323 15.5654 11.4941 15.5772 11.4521 15.5772H3.95428V16.1488C3.95428 16.2601 3.99771 16.3646 4.0763 16.4432C4.15488 16.5217 4.25932 16.565 4.37021 16.565L13.7249 16.5593C13.9544 16.5591 14.1411 16.3724 14.1411 16.143V11.481C14.1344 11.4814 14.1278 11.4824 14.1212 11.4828L14.0622 11.2209Z" fill="white"/>
<path d="M16.8776 9.98616C16.8803 10.1344 16.7638 10.2535 16.6182 10.2561C16.6156 10.2561 16.6156 10.2561 16.6129 10.2561C16.47 10.2561 16.3508 10.1397 16.3482 9.99409L16.3376 8.7844L16.8644 8.55939L16.8776 9.98616Z" fill="white"/>
</svg>
