<svg width="18" height="18" viewBox="0 0 18 18" fill="none" xmlns="http://www.w3.org/2000/svg">
<g clip-path="url(#clip0_336_77)">
<path d="M16.9056 4.30919C16.8012 4.08239 16.6086 3.9078 16.3656 3.8394L10.197 1.62541C9.8082 1.4832 9.405 1.40041 9 1.37521C8.406 1.33559 7.8048 1.41841 7.236 1.62541L1.0692 3.85559C0.842399 3.92582 0.633604 4.10041 0.5292 4.32721C0.422996 4.55221 0.422996 4.815 0.5292 5.04C0.633604 5.26681 0.824403 5.4414 1.0692 5.5116L2.34 5.96341C1.9224 6.3648 1.6776 6.9048 1.6776 7.48081V11.9232V11.9574C1.539 11.9916 1.4166 12.0618 1.3122 12.1662C1.2078 12.2706 1.1376 12.393 1.1034 12.5316L0.842399 13.6134C0.737996 14.013 0.824403 14.4144 1.0692 14.7276C1.3122 15.0408 1.6776 15.2334 2.079 15.2334C2.4624 15.2334 2.8458 15.0408 3.08879 14.7276C3.3516 14.4144 3.438 13.995 3.3336 13.6134L3.0726 12.5316C3.0366 12.393 2.9682 12.2706 2.8638 12.1662C2.7576 12.0618 2.637 11.9916 2.4966 11.9574C2.4966 11.9394 2.4966 11.9394 2.4966 11.9232V7.49699C2.4966 7.236 2.5848 6.9912 2.7234 6.78239C2.88 6.57361 3.0726 6.41699 3.3156 6.33059L7.3224 4.815C5.9112 5.616 4.0824 6.6096 4.0824 6.6096L7.236 7.74181C7.8048 7.94879 8.406 8.0316 9 7.99199C9.405 7.96681 9.8082 7.88401 10.197 7.74181L16.3656 5.5116C16.6086 5.4414 16.8012 5.26681 16.9056 5.02379C17.01 4.79699 17.01 4.536 16.9056 4.30919ZM13.4208 7.89841L10.6164 8.9082C10.0908 9.09361 9.5454 9.1998 9 9.225C8.2602 9.2646 7.5186 9.1584 6.8184 8.9082L4.0122 7.89841L3.9258 8.838C3.8214 10.0764 4.3614 11.2428 5.18041 11.5398C6.4188 11.97 7.7112 12.1698 9 12.1356C9.234 12.1302 9.4698 12.1176 9.70379 12.096C10.0962 10.2906 11.6208 8.901 13.4946 8.71021L13.4208 7.89841Z" fill="white"/>
<path d="M13.9374 9.40863C11.9412 9.40863 10.323 11.025 10.323 13.0212C10.323 15.0174 11.9412 16.6356 13.9374 16.6356C15.9336 16.6356 17.55 15.0174 17.55 13.0212C17.55 11.025 15.9336 9.40863 13.9374 9.40863ZM13.9374 14.202C13.7808 14.4792 13.6602 14.7294 13.5828 14.931L11.7252 13.041L12.2004 12.6576L13.2768 13.5C13.4316 13.3164 13.6548 13.0662 13.9374 12.7836C14.4522 12.2688 15.1686 11.6442 16.0362 11.1114L16.1496 11.3796C15.219 12.2364 14.4126 13.3524 13.9374 14.202Z" fill="white"/>
</g>
<defs>
<clipPath id="clip0_336_77">
<rect width="18" height="18" fill="white"/>
</clipPath>
</defs>
</svg>
