<svg width="18" height="18" viewBox="0 0 18 18" fill="none" xmlns="http://www.w3.org/2000/svg">
<g clip-path="url(#clip0_336_140)">
<path d="M2.47022 1.60504V2.89419H0.281285C0.145758 2.89419 0.0351562 2.78362 0.0351562 2.64806V1.60504C0.0351562 0.935387 0.583031 0.387512 1.25269 0.387512C1.92234 0.387512 2.47022 0.935387 2.47022 1.60504ZM14.2958 10.2723C15.1555 10.2723 15.9947 10.6352 16.7319 11.0508V13.2947C16.7319 13.9884 16.4446 14.551 15.881 14.956L14.2958 16.0953L12.7105 14.956C12.1469 14.551 11.8596 13.9883 11.8596 13.2947V11.0508C12.5969 10.6352 13.436 10.2723 14.2958 10.2723ZM15.2429 11.9802L13.8628 13.3732L13.3426 12.8662C13.1407 12.6697 12.8177 12.6742 12.6213 12.8761C12.4249 13.0781 12.4294 13.4011 12.6313 13.5975L13.5134 14.4573C13.7135 14.6519 14.0334 14.6498 14.2308 14.4514L15.9662 12.6996C16.1649 12.4999 16.164 12.1769 15.9642 11.9782C15.7645 11.7795 15.4415 11.7805 15.2429 11.9802ZM17.9648 10.3533V13.2947C17.9648 14.3837 17.4845 15.3206 16.6001 15.9562L14.2957 17.6124L11.9913 15.9562C11.107 15.3206 10.6266 14.3837 10.6266 13.2947V10.3533C12.0172 9.47734 13.1565 9.03936 14.2957 9.0394C15.435 9.03936 16.5742 9.47734 17.9648 10.3533ZM17.2944 10.8885C17.2944 10.7776 17.2301 10.6817 17.1368 10.6359C16.281 10.1394 15.3015 9.70986 14.2958 9.70986C13.2835 9.70986 12.2981 10.1448 11.4377 10.6458C11.348 10.6977 11.2978 10.7918 11.2977 10.8885L11.2971 13.2947C11.2971 14.1658 11.6758 14.9025 12.3831 15.4108L14.1321 16.6678C14.2342 16.7414 14.3691 16.7362 14.4645 16.6642L16.2084 15.4108C16.9157 14.9025 17.2944 14.1658 17.2944 13.2947V10.8885H17.2944ZM10.1252 14.0006C10.2285 14.5849 10.4615 15.1214 10.8123 15.5869H3.27885C3.14329 15.5869 3.03272 15.4763 3.03272 15.3407V3.45669V1.60504C3.03272 1.59453 3.03251 1.58409 3.03233 1.57361C3.02432 1.11584 2.84189 0.699208 2.54893 0.387512H13.0782C13.7479 0.387512 14.2958 0.935387 14.2958 1.60504V8.4769C13.3917 8.4769 12.5374 8.72816 11.7311 9.10071C11.7465 9.06601 11.755 9.02758 11.755 8.98719C11.755 8.83187 11.6291 8.70594 11.4738 8.70594H7.47123C7.31591 8.70594 7.18998 8.83187 7.18998 8.98719C7.18998 9.14251 7.31591 9.26844 7.47123 9.26844H11.3867C11.0233 9.45399 10.6701 9.66113 10.3269 9.87734L10.0642 10.0428V10.072H7.47123C7.31591 10.072 7.18998 10.198 7.18998 10.3533C7.18998 10.5086 7.31591 10.6345 7.47123 10.6345H10.0642V12.072H7.47123C7.31591 12.072 7.18998 12.198 7.18998 12.3533C7.18998 12.5086 7.31591 12.6345 7.47123 12.6345H10.0642V13.2947C10.0642 13.3427 10.0651 13.3905 10.0667 13.4381H7.47123C7.31591 13.4381 7.18998 13.5641 7.18998 13.7194C7.18998 13.8747 7.31591 14.0006 7.47123 14.0006H10.1252ZM7.18998 2.25498C7.18998 2.4103 7.31591 2.53623 7.47123 2.53623H11.4738C11.6291 2.53623 11.755 2.4103 11.755 2.25498C11.755 2.09966 11.6291 1.97373 11.4738 1.97373H7.47123C7.31588 1.97373 7.18998 2.09966 7.18998 2.25498ZM7.18998 3.62108C7.18998 3.7764 7.31591 3.90233 7.47123 3.90233H13.1338C13.2891 3.90233 13.4151 3.7764 13.4151 3.62108C13.4151 3.46576 13.2891 3.33983 13.1338 3.33983H7.47123C7.31588 3.33983 7.18998 3.46576 7.18998 3.62108ZM7.18998 5.62108C7.18998 5.7764 7.31591 5.90233 7.47123 5.90233H11.4738C11.6291 5.90233 11.755 5.7764 11.755 5.62108C11.755 5.46576 11.6291 5.33983 11.4738 5.33983H7.47123C7.31588 5.33983 7.18998 5.46576 7.18998 5.62108ZM7.18998 6.98718C7.18998 7.1425 7.31591 7.26843 7.47123 7.26843H13.1338C13.2891 7.26843 13.4151 7.1425 13.4151 6.98718C13.4151 6.83186 13.2891 6.70593 13.1338 6.70593H7.47123C7.31588 6.70593 7.18998 6.83186 7.18998 6.98718ZM5.8706 12.3226C5.8706 12.2542 5.81481 12.1984 5.74639 12.1984H4.31891C4.2505 12.1984 4.19467 12.2542 4.19467 12.3226V13.7501C4.19467 13.8185 4.25046 13.8743 4.31891 13.8743H5.74639C5.81481 13.8743 5.8706 13.8185 5.8706 13.7501V12.3226ZM5.8706 8.9565C5.8706 8.88805 5.81481 8.83225 5.74639 8.83225C5.27059 8.83225 4.79471 8.83225 4.31891 8.83225C4.2505 8.83225 4.19467 8.88805 4.19467 8.9565V10.384C4.19467 10.4524 4.25046 10.5082 4.31891 10.5082H5.74639C5.81481 10.5082 5.8706 10.4524 5.8706 10.384C5.8706 9.90818 5.8706 9.4323 5.8706 8.9565ZM5.8706 5.59039C5.8706 5.52198 5.81481 5.46615 5.74639 5.46615C5.27059 5.46615 4.79471 5.46615 4.31891 5.46615C4.2505 5.46615 4.19467 5.52194 4.19467 5.59039V7.01788C4.19467 7.08632 4.25046 7.14212 4.31891 7.14212H5.74639C5.81481 7.14212 5.8706 7.08632 5.8706 7.01788C5.8706 6.54204 5.8706 6.0662 5.8706 5.59039ZM5.8706 2.22429C5.8706 2.15584 5.81481 2.10004 5.74639 2.10004H4.31891C4.2505 2.10004 4.19467 2.15584 4.19467 2.22429V3.65177C4.19467 3.72018 4.25046 3.77601 4.31891 3.77601H5.74639C5.81481 3.77601 5.8706 3.72022 5.8706 3.65177V2.22429Z" fill="white"/>
</g>
<defs>
<clipPath id="clip0_336_140">
<rect width="18" height="18" fill="white"/>
</clipPath>
</defs>
</svg>
