<svg width="18" height="18" viewBox="0 0 18 18" fill="none" xmlns="http://www.w3.org/2000/svg">
<path fill-rule="evenodd" clip-rule="evenodd" d="M15.1787 7.88603V8.62605C15.1787 9.54578 14.4331 10.2914 13.5134 10.2914C12.5937 10.2914 11.8482 9.54578 11.8482 8.62605V7.88603L13.0062 8.40068C13.3291 8.54423 13.6977 8.54423 14.0207 8.40068L15.1787 7.88603ZM10.8074 7.42346V9.25058C10.8074 9.42308 10.6676 9.56288 10.4951 9.56288C10.3227 9.56288 10.1829 9.42308 10.1829 9.25058V7.14551C10.1867 7.14747 10.1906 7.14933 10.1946 7.1511L10.8074 7.42346Z" fill="white"/>
<path d="M16.8319 7.07801L14.0203 5.82841C13.6974 5.68488 13.3287 5.68488 13.0058 5.82841L10.1942 7.07801C10.0294 7.15127 10.0294 7.38519 10.1942 7.45845L13.0058 8.70803C13.3287 8.85158 13.6974 8.85158 14.0203 8.70803L16.8319 7.45845C16.9968 7.38519 16.9968 7.15127 16.8319 7.07801Z" fill="white"/>
<path fill-rule="evenodd" clip-rule="evenodd" d="M12.2374 13.9291H16.0108C16.4707 13.9291 16.8435 13.5564 16.8435 13.0965C16.8435 12.1943 16.0288 11.4184 14.861 11.0749C14.7216 11.034 14.5725 11.078 14.4703 11.1813L13.809 11.85C13.646 12.0148 13.3799 12.0148 13.2169 11.85L12.5557 11.1813C12.4534 11.078 12.3043 11.034 12.1649 11.0749C11.7558 11.1952 11.3901 11.3686 11.0875 11.5819C11.8084 12.2416 12.2344 13.0524 12.2374 13.9291Z" fill="white"/>
<path fill-rule="evenodd" clip-rule="evenodd" d="M8.83662 6.15538V7.28446C8.83662 8.68747 7.69924 9.82485 6.29622 9.82485C4.89318 9.82485 3.75581 8.68747 3.75581 7.28446V6.15538L5.5224 6.94054C6.01505 7.1595 6.57739 7.1595 7.07004 6.94054L8.83662 6.15538ZM2.16804 5.44972V8.2371C2.16804 8.5002 1.95479 8.71342 1.69172 8.71342C1.42865 8.71342 1.21539 8.5002 1.21539 8.2371V5.0257C1.22118 5.02868 1.22712 5.03152 1.2332 5.03423L2.16804 5.44972Z" fill="white"/>
<path d="M11.3587 4.45383L7.06956 2.54752C6.57691 2.32856 6.01456 2.32856 5.52191 2.54752L1.23271 4.45383C0.981267 4.56558 0.981267 4.92244 1.23271 5.03419L5.52191 6.94051C6.01456 7.15946 6.57691 7.15946 7.06956 6.94051L11.3587 5.03419C11.6102 4.92244 11.6102 4.56558 11.3587 4.45383Z" fill="white"/>
<path d="M4.8354 10.7138L5.84428 11.734C6.09287 11.9853 6.49885 11.9853 6.74743 11.734L7.75633 10.7138C7.91218 10.5562 8.13966 10.489 8.35236 10.5516C10.1339 11.0755 11.3767 12.2592 11.3767 13.6355C11.3767 14.3371 10.808 14.9057 10.1065 14.9057H2.48523C1.78372 14.9057 1.21503 14.3371 1.21503 13.6355C1.21503 12.2592 2.45784 11.0755 4.23939 10.5516C4.45203 10.489 4.67955 10.5562 4.8354 10.7138Z" fill="white"/>
</svg>
