<svg width="18" height="18" viewBox="0 0 18 18" fill="none" xmlns="http://www.w3.org/2000/svg">
<g clip-path="url(#clip0_336_119)">
<path d="M13.3012 9.04664C13.2128 8.98527 13.1114 8.955 13.0116 8.955C12.9314 8.955 12.852 8.97464 12.78 9.01228C12.78 9.01228 12.7735 9.01637 12.7636 9.02209C12.915 9.56373 12.7759 9.90573 12.6319 10.098L12.6311 10.0988H13.2897H15.7991C16.4373 10.0988 16.6623 9.70282 16.4913 9.11291L15.9259 7.19427L13.3331 9.07282C13.3225 9.06382 13.3126 9.05482 13.3012 9.04664Z" fill="white"/>
<path d="M13.8715 5.55558C14.6861 5.21793 15.0728 4.28385 14.7351 3.46925C14.3975 2.65466 13.4634 2.26802 12.6488 2.60567C11.8342 2.94332 11.4475 3.8774 11.7852 4.692C12.1229 5.50659 13.0569 5.89323 13.8715 5.55558Z" fill="white"/>
<path d="M4.67916 5.67735C5.56076 5.67735 6.27543 4.96267 6.27543 4.08107C6.27543 3.19948 5.56076 2.4848 4.67916 2.4848C3.79756 2.4848 3.08289 3.19948 3.08289 4.08107C3.08289 4.96267 3.79756 5.67735 4.67916 5.67735Z" fill="white"/>
<path d="M9.13092 5.88275C8.39947 5.88275 7.74656 5.44666 7.46674 4.77084C7.28265 4.32657 7.28265 3.8373 7.46674 3.39221C7.65083 2.94793 7.99692 2.60184 8.4412 2.41693C8.66129 2.3253 8.89365 2.27948 9.13011 2.27948C9.86156 2.27948 10.5145 2.71557 10.7943 3.39139C11.1747 4.30857 10.7378 5.36403 9.81983 5.74448C9.59974 5.83612 9.3682 5.88275 9.13092 5.88275Z" fill="white"/>
<path d="M5.99401 13.1777L5.92446 13.1147C5.84101 13.0394 5.73382 13.005 5.62828 13.0107C5.52273 13.0165 5.41964 13.0615 5.34519 13.1466L4.63746 13.9353C4.62192 13.9525 4.60964 13.9713 4.59737 13.9893C4.55564 14.0547 4.53519 14.1284 4.53355 14.202C4.53192 14.3174 4.5761 14.4319 4.66773 14.5146L4.73728 14.5776C4.82073 14.6528 4.92792 14.6872 5.03346 14.6815C5.04573 14.6807 5.05801 14.6774 5.07028 14.6757C5.1431 14.6651 5.21346 14.6348 5.27319 14.5849C5.28792 14.5727 5.30346 14.5604 5.31655 14.5457L6.02428 13.7569C6.17646 13.5892 6.16255 13.329 5.99401 13.1777Z" fill="white"/>
<path d="M8.16303 15.1012L8.09348 15.0382C8.01003 14.9629 7.90285 14.9285 7.7973 14.9343C7.69176 14.94 7.58948 14.9858 7.51421 15.0701L6.94312 15.7066L6.80648 15.8588C6.80485 15.8605 6.80485 15.8621 6.80321 15.8629C6.75657 15.9169 6.72712 15.9799 6.71239 16.0454C6.68212 16.1853 6.72303 16.3366 6.83757 16.4389L6.90712 16.5019C6.99057 16.5772 7.09775 16.6115 7.2033 16.6058C7.3023 16.6001 7.39885 16.5575 7.47248 16.4823C7.47657 16.4782 7.4823 16.4741 7.48639 16.47L7.61239 16.3293L7.75312 16.1722L8.19412 15.6813C8.34548 15.5127 8.33157 15.2525 8.16303 15.1012Z" fill="white"/>
<path d="M9.49416 16.2524C9.47698 16.1697 9.43525 16.0904 9.36816 16.0298L9.29861 15.9668C9.21516 15.8916 9.10798 15.8572 9.00243 15.8629C8.89688 15.8686 8.79461 15.9145 8.71934 15.9987L8.28816 16.4798L8.14743 16.6369L8.1057 16.6827C8.07298 16.7196 8.04925 16.7605 8.03207 16.8038C7.96907 16.9593 8.00507 17.1442 8.13679 17.2628L8.20634 17.3258C8.28979 17.4011 8.39779 17.4355 8.50252 17.4297C8.60725 17.424 8.71034 17.3774 8.78561 17.2939L8.81916 17.2563L8.95743 17.1025L9.00898 17.0452L9.16688 16.8693L9.36325 16.65L9.39925 16.6099C9.43361 16.5715 9.45816 16.5281 9.47534 16.4831C9.50398 16.4086 9.51052 16.3285 9.49416 16.2524Z" fill="white"/>
<path d="M7.43808 13.7815L7.36853 13.7185C7.28508 13.6432 7.1779 13.6088 7.07235 13.6146C6.96762 13.6203 6.86453 13.6669 6.79008 13.7512L5.68471 14.9826L5.5849 15.0947C5.57181 15.1094 5.56117 15.1257 5.55053 15.1421C5.51044 15.2018 5.48835 15.2689 5.48344 15.3377C5.47444 15.4604 5.51862 15.5856 5.61681 15.6739L5.68635 15.7369C5.76981 15.8122 5.87699 15.8466 5.98253 15.8408C6.06353 15.8367 6.14371 15.8065 6.20999 15.7549C6.22962 15.7402 6.24844 15.7238 6.26562 15.705L6.35562 15.6044L6.49553 15.4481L7.46999 14.3607C7.62053 14.193 7.60662 13.9328 7.43808 13.7815Z" fill="white"/>
<path d="M7.47162 10.0988H7.55508C7.85535 9.78793 8.28653 9.55065 8.6858 9.36329C8.76108 9.32729 9.46962 8.99184 10.2911 8.99184C10.5193 8.99184 10.7394 9.0172 10.944 9.06875C11.0373 9.09165 11.1264 9.11702 11.2042 9.13993C11.3236 9.17429 11.4472 9.21029 11.5126 9.21029C11.5192 9.21029 11.5224 9.20947 11.5224 9.20947C11.6394 9.18738 11.889 9.06793 11.9536 9.02702L11.9667 9.01802L11.9806 9.00984C12.0199 8.98775 12.15 8.91084 12.2833 8.83229L11.7237 6.93247C11.6083 6.51766 11.2148 6.12329 10.7697 6.12329H9.16362H7.55671C7.11162 6.12329 6.71808 6.51766 6.60271 6.93247L5.96044 9.11293C5.94244 9.17511 5.93017 9.23402 5.92035 9.29211L6.52008 9.66438C6.62562 9.71266 7.06089 9.91147 7.47162 10.0988Z" fill="white"/>
<path d="M13.2987 8.59338L15.795 6.78438C15.6371 6.42847 15.2861 6.12329 14.895 6.12329H13.2897H11.6984C11.9005 6.32456 12.0469 6.57575 12.1156 6.82038L12.6475 8.62529C12.7628 8.57456 12.8872 8.54675 13.0124 8.54675C13.1097 8.54675 13.2063 8.56229 13.2987 8.59338Z" fill="white"/>
<path d="M18 5.69128L13.3331 9.07283C13.3224 9.06383 13.3126 9.05483 13.3012 9.04665C13.2128 8.98528 13.1114 8.95501 13.0115 8.95501C12.9314 8.95501 12.852 8.97465 12.78 9.01228C12.78 9.01228 12.7775 9.01392 12.7751 9.01556C12.7734 9.01638 12.7702 9.01883 12.7669 9.02047C12.69 9.06628 12.2629 9.31828 12.1794 9.36574C12.1058 9.41565 11.7933 9.57356 11.5953 9.61038C11.5683 9.61528 11.5404 9.61774 11.5118 9.61774C11.3277 9.61774 11.1044 9.52692 10.8458 9.46474C10.6601 9.4181 10.4719 9.39928 10.2903 9.39928C9.52608 9.39928 8.86254 9.73065 8.86254 9.73065C8.4739 9.9131 8.15154 10.1029 7.92654 10.3066C7.87008 10.3582 7.81936 10.4106 7.77599 10.4637C7.73017 10.5202 7.69172 10.5775 7.66145 10.6356C7.61072 10.7329 7.58126 10.8344 7.57881 10.9391C7.57145 11.25 7.7719 11.5086 8.09017 11.5977C8.16135 11.6182 8.23581 11.628 8.30781 11.628C8.36508 11.628 8.42154 11.6223 8.47554 11.6092C8.57945 11.5846 8.68008 11.5429 8.78645 11.4996C8.93863 11.4374 9.14154 11.3367 9.37145 11.2803C9.47372 11.2549 9.58172 11.2377 9.69381 11.2377C9.78872 11.2377 9.88608 11.2492 9.98508 11.277C10.2395 11.3482 10.7075 11.6215 11.0422 11.8489C11.07 11.8677 11.097 11.8866 11.1232 11.9046C11.7368 12.357 12.2433 12.9076 12.6065 13.3626C12.6532 13.4215 12.6982 13.4787 12.7407 13.5336C12.7857 13.5916 12.8274 13.6481 12.8659 13.7013C13.0582 13.9647 13.1809 14.1603 13.2218 14.2274C13.2275 14.2372 13.2374 14.2421 13.2472 14.2421C13.2529 14.2421 13.2586 14.2405 13.2635 14.2372C13.3061 14.2102 13.3936 14.1496 13.4951 14.0531C13.4959 14.0523 13.4967 14.0515 13.4975 14.0506C13.5777 13.9606 13.6374 13.8461 13.689 13.7872C13.8526 13.6015 14.0187 13.4886 14.3542 13.3102L14.8803 13.0353C15.1241 12.9076 15.2198 12.6049 15.0922 12.3603L15.0897 12.3546L18 10.2976V5.69128Z" fill="white"/>
<path d="M13.2987 8.59338L15.795 6.78438C15.6371 6.42847 15.2861 6.12329 14.895 6.12329H13.2897H11.6984C11.9005 6.32456 12.0469 6.57575 12.1156 6.82038L12.6475 8.62529C12.7628 8.57456 12.8872 8.54675 13.0124 8.54675C13.1097 8.54675 13.2063 8.56229 13.2987 8.59338Z" fill="white"/>
<path d="M10.8835 12.2384C10.521 11.9831 10.0595 11.7237 9.87382 11.6722C9.81573 11.6558 9.75682 11.6476 9.693 11.6476C9.47373 11.6476 9.25609 11.7426 9.06464 11.826C9.02045 11.8448 8.97955 11.8628 8.93945 11.8792C8.82409 11.9266 8.70464 11.9757 8.57045 12.0076C8.48536 12.0281 8.397 12.0379 8.307 12.0379C8.19654 12.0379 8.08691 12.0232 7.97973 11.9929C7.48227 11.8538 7.15664 11.4259 7.16973 10.9301C7.17382 10.7607 7.218 10.6069 7.28836 10.4646C6.88827 10.2821 6.47182 10.0915 6.35809 10.0391C6.33845 10.0301 6.327 10.0252 6.327 10.0252L5.41555 9.45901C5.31327 9.39519 5.15209 9.30601 4.99173 9.30601C4.89436 9.30601 4.79618 9.33955 4.71191 9.43201L4.67836 9.48682L2.26882 6.66164L0 4.00092V9.93273L2.71391 12.6884C2.77609 12.7489 3.10255 13.0099 3.14591 13.0369L4.09336 13.6219L4.09255 13.6227C4.18091 13.68 4.26927 13.7414 4.35682 13.8052C4.374 13.7806 4.392 13.7561 4.41245 13.7332L5.12018 12.9445C5.247 12.8037 5.42127 12.7203 5.61191 12.7096C5.80173 12.699 5.98418 12.7636 6.12736 12.8896L6.19691 12.9526C6.33764 13.0795 6.42191 13.2537 6.43173 13.4444C6.43745 13.5532 6.41782 13.6587 6.37773 13.7561L6.56427 13.5483C6.69109 13.4076 6.86536 13.3241 7.056 13.3135C7.24664 13.3036 7.42991 13.3675 7.56982 13.4951L7.63936 13.5581C7.93145 13.8199 7.956 14.2716 7.69418 14.5636L7.60173 14.6667C7.659 14.6487 7.71873 14.6365 7.78091 14.6332C7.97154 14.6234 8.15318 14.6872 8.29554 14.814L8.36509 14.877C8.50582 15.0038 8.58927 15.1781 8.59991 15.3687C8.60891 15.5463 8.55409 15.7165 8.44445 15.8523L8.49436 15.7966C8.62118 15.6559 8.79545 15.5725 8.98609 15.5618C9.17673 15.5512 9.35918 15.6158 9.50073 15.7426L9.57027 15.8056C9.75518 15.9709 9.83209 16.2123 9.79854 16.4414L10.0955 16.6263C10.1626 16.668 10.2371 16.6876 10.3107 16.6876C10.4482 16.6876 10.5832 16.6189 10.6609 16.4946L10.71 16.4144C10.8295 16.2229 10.7697 15.9685 10.5783 15.849L9.82882 15.3826C9.63736 15.2632 9.57764 15.0087 9.69709 14.8173L9.74618 14.7371C9.82391 14.6127 9.95891 14.544 10.0964 14.544C10.17 14.544 10.2445 14.5636 10.3115 14.6054L11.1494 15.1266L11.322 15.2337C11.3891 15.2755 11.4635 15.2951 11.5372 15.2951C11.6746 15.2951 11.8096 15.2264 11.8874 15.102L11.9365 15.0218C12.0559 14.8304 11.9962 14.5759 11.8047 14.4565L10.7943 13.8281C10.6028 13.7086 10.5431 13.4542 10.6625 13.2627L10.7116 13.1826C10.7894 13.0582 10.9244 12.9895 11.0618 12.9895C11.1355 12.9895 11.2099 13.0091 11.277 13.0508L11.8113 13.383L12.0265 13.5172C12.0935 13.5589 12.168 13.5786 12.2416 13.5786C12.2457 13.5786 12.249 13.5777 12.2523 13.5777C11.9103 13.1547 11.4415 12.6499 10.8835 12.2384Z" fill="white"/>
<path d="M6.21001 6.81956C6.27301 6.59375 6.4031 6.36302 6.58147 6.17075C6.49638 6.14047 6.40801 6.12329 6.31638 6.12329H4.71029H3.10501C2.89638 6.12329 2.6992 6.21084 2.53638 6.34584L4.74547 8.9362C4.8232 8.91084 4.90583 8.89775 4.99174 8.89775C5.21265 8.89775 5.40656 8.98366 5.55138 9.06466C5.5571 9.04256 5.56201 9.02047 5.56938 8.99756L6.21001 6.81956Z" fill="white"/>
</g>
<defs>
<clipPath id="clip0_336_119">
<rect width="18" height="18" fill="white"/>
</clipPath>
</defs>
</svg>
