<svg width="18" height="18" viewBox="0 0 18 18" fill="none" xmlns="http://www.w3.org/2000/svg">
<g clip-path="url(#clip0_336_165)">
<path d="M10.9827 7.01599C10.7695 6.80151 10.533 6.61138 10.2778 6.44909C9.60181 6.01622 8.81593 5.7862 8.01321 5.7862C6.89906 5.78413 5.83019 6.22681 5.04374 7.01599L1.22843 10.8343C0.443319 11.6209 0.00204664 12.6867 0.00134364 13.7981C-0.000132655 16.1173 1.8787 17.9985 4.1979 18C5.31032 18.0039 6.37821 17.5633 7.16437 16.7762L10.3138 13.6268C10.371 13.57 10.403 13.4926 10.4025 13.4121C10.4016 13.2464 10.2665 13.1129 10.1008 13.1139H9.98087C9.32286 13.1162 8.67072 12.9898 8.06122 12.742C7.94892 12.6957 7.81985 12.7218 7.73429 12.8079L5.46969 15.0755C4.76648 15.7787 3.62636 15.7787 2.92315 15.0755C2.21994 14.3723 2.21994 13.2322 2.92315 12.529L6.75347 8.70168C7.45612 7.99991 8.59438 7.99991 9.29703 8.70168C9.77057 9.14734 10.5092 9.14734 10.9827 8.70168C11.1864 8.49777 11.31 8.22733 11.3307 7.9398C11.3526 7.59621 11.2258 7.25972 10.9827 7.01599Z" fill="white"/>
<path d="M16.7687 1.22999C15.1287 -0.409998 12.4698 -0.409998 10.8298 1.22999L7.68333 4.37342C7.59693 4.46024 7.57201 4.59082 7.62034 4.70337C7.66811 4.81624 7.77974 4.88868 7.90228 4.88632H8.01324C8.67048 4.88513 9.32156 5.01248 9.9299 5.26127C10.0422 5.30749 10.1713 5.28141 10.2568 5.19529L12.5154 2.93969C13.2186 2.23648 14.3588 2.23648 15.062 2.93969C15.7652 3.6429 15.7652 4.78302 15.062 5.48623L12.2485 8.29671L12.2245 8.32371L11.2406 9.30154C10.538 10.0033 9.39973 10.0033 8.69709 9.30154C8.22355 8.85588 7.48491 8.85588 7.0114 9.30154C6.80637 9.50699 6.68275 9.77979 6.66345 10.0694C6.64152 10.413 6.76823 10.7495 7.0114 10.9932C7.35858 11.3419 7.76477 11.6262 8.21117 11.8331C8.27416 11.8631 8.33715 11.8871 8.40014 11.9141C8.46313 11.9411 8.5291 11.962 8.59209 11.986C8.65508 12.0101 8.72106 12.031 8.78405 12.049L8.96103 12.097C9.08099 12.127 9.20099 12.151 9.32395 12.172C9.47207 12.194 9.62125 12.208 9.77088 12.214H9.98083H9.99883L10.1788 12.193C10.2448 12.19 10.3138 12.175 10.3918 12.175H10.4937L10.7007 12.145L10.7967 12.127L10.9707 12.091H11.0037C11.7404 11.906 12.4132 11.5245 12.9503 10.9872L16.7686 7.16893C18.4087 5.52894 18.4087 2.86998 16.7687 1.22999Z" fill="white"/>
</g>
<defs>
<clipPath id="clip0_336_165">
<rect width="18" height="18" fill="white"/>
</clipPath>
</defs>
</svg>
