<svg width="20" height="20" viewBox="0 0 20 20" fill="none" xmlns="http://www.w3.org/2000/svg">
<g clip-path="url(#clip0_192_493)">
<path d="M1.66667 11.6667C1.22464 11.6667 0.800716 11.4911 0.488155 11.1785C0.175595 10.8659 0 10.442 0 9.99999V9.16665C0 8.72463 0.175595 8.3007 0.488155 7.98814C0.800716 7.67558 1.22464 7.49999 1.66667 7.49999V4.99999H9.16667V11.6667H1.66667ZM15.2917 0.691653C11.824 -0.229168 8.17602 -0.229168 4.70833 0.691653C4.06489 0.877588 3.47504 1.21421 2.98766 1.67362C2.50028 2.13302 2.12943 2.70198 1.90583 3.33332H18.0942C17.8706 2.70198 17.4997 2.13302 17.0123 1.67362C16.525 1.21421 15.9351 0.877588 15.2917 0.691653ZM15 14.1667C15 14.3877 14.9122 14.5996 14.7559 14.7559C14.5996 14.9122 14.3877 15 14.1667 15C13.9457 15 13.7337 14.9122 13.5774 14.7559C13.4211 14.5996 13.3333 14.3877 13.3333 14.1667V13.3333H6.66667V14.1667C6.66667 14.3877 6.57887 14.5996 6.42259 14.7559C6.26631 14.9122 6.05435 15 5.83333 15C5.61232 15 5.40036 14.9122 5.24408 14.7559C5.0878 14.5996 5 14.3877 5 14.1667V13.3333H1.66667V14.1667C1.66861 14.8102 1.82019 15.4445 2.10945 16.0194C2.39871 16.5943 2.8177 17.0941 3.33333 17.4792V17.9167C3.33383 18.4326 3.52574 18.93 3.87193 19.3125C4.21811 19.6951 4.69393 19.9356 5.20725 19.9874C5.72057 20.0393 6.23488 19.8988 6.65059 19.5933C7.06629 19.2877 7.35382 18.8387 7.4575 18.3333H12.5408C12.6428 18.8406 12.9298 19.2917 13.346 19.599C13.7622 19.9063 14.2779 20.0477 14.7927 19.9957C15.3074 19.9437 15.7844 19.7021 16.1308 19.3178C16.4772 18.9335 16.6682 18.434 16.6667 17.9167V17.4792C17.1823 17.0941 17.6013 16.5943 17.8906 16.0194C18.1798 15.4445 18.3314 14.8102 18.3333 14.1667V13.3333H15V14.1667ZM18.3333 7.49999V4.99999H10.8333V11.6667H18.3333C18.7754 11.6667 19.1993 11.4911 19.5118 11.1785C19.8244 10.8659 20 10.442 20 9.99999V9.16665C20 8.72463 19.8244 8.3007 19.5118 7.98814C19.1993 7.67558 18.7754 7.49999 18.3333 7.49999Z" fill="url(#paint0_linear_192_493)"/>
</g>
<defs>
<linearGradient id="paint0_linear_192_493" x1="10" y1="0.0010376" x2="10" y2="20.0063" gradientUnits="userSpaceOnUse">
<stop stop-color="#91C04A"/>
<stop offset="1" stop-color="#009EDB"/>
</linearGradient>
<clipPath id="clip0_192_493">
<rect width="20" height="20" fill="white"/>
</clipPath>
</defs>
</svg>
