<svg width="20" height="20" viewBox="0 0 20 20" fill="none" xmlns="http://www.w3.org/2000/svg">
<g clip-path="url(#clip0_192_408)">
<path d="M20 13.3335V18.3335C20 19.2543 19.2542 20.0002 18.3333 20.0002H15.8333C14.9125 20.0002 14.1667 19.2543 14.1667 18.3335V13.3335C14.1667 12.4127 14.9125 11.6668 15.8333 11.6668H18.3333C19.2542 11.6668 20 12.4127 20 13.3335ZM7.08333 4.16682C8.23417 4.16682 9.16667 3.23432 9.16667 2.08349C9.16667 0.932655 8.23417 0.000155171 7.08333 0.000155171C5.9325 0.000155171 5 0.932655 5 2.08349C5 3.23432 5.9325 4.16682 7.08333 4.16682ZM3.33333 16.6668H1.66667C0.745833 16.6668 0 17.4127 0 18.3335C0 19.2543 0.745833 20.0002 1.66667 20.0002H3.33333C4.25417 20.0002 5 19.2543 5 18.3335C5 17.4127 4.25417 16.6668 3.33333 16.6668ZM12.5 15.8335V18.3335C12.5 19.2543 11.7542 20.0002 10.8333 20.0002H8.33333C7.4125 20.0002 6.66667 19.2543 6.66667 18.3335V15.8335C6.66667 15.2185 7.00417 14.6868 7.5 14.3977V13.1018L4.8575 12.2293L4.31417 13.8602C4.08667 14.5418 3.45083 14.9993 2.73333 14.9993H0.833333C0.373333 14.9993 0 14.626 0 14.166C0 13.706 0.373333 13.3327 0.833333 13.3327H2.7325L3.30583 11.6127C2.61583 11.1243 2.26083 10.2502 2.4825 9.39432L3.23 6.60432C3.425 5.69182 4.28167 4.99932 5.25667 4.99932H9.12083C9.27167 4.99932 9.42 4.95849 9.55 4.88016L11.2367 3.86766C11.6325 3.63016 12.1433 3.75932 12.38 4.15349C12.6167 4.54849 12.4892 5.06016 12.0942 5.29682L10.4067 6.30932C10.0175 6.54266 9.57333 6.66599 9.12 6.66599H7.8575L6.6875 11.0785L8.02083 11.5193C8.705 11.7452 9.165 12.381 9.165 13.1018V14.166H10.8317C11.7525 14.166 12.4983 14.9118 12.4983 15.8327L12.5 15.8335ZM15 10.0002C15.4608 10.0002 15.8333 9.62682 15.8333 9.16682V5.00016L18.7042 3.27766C19.2917 2.92516 19.2917 2.07432 18.7042 1.72182L16.5483 0.428489C16.0808 0.147655 15.5458 0.000155171 15.0008 0.000155171C14.5483 -0.0090115 14.1767 0.389322 14.1675 0.833489V9.16682C14.1675 9.62682 14.5392 10.0002 15 10.0002Z" fill="url(#paint0_linear_192_408)"/>
</g>
<defs>
<linearGradient id="paint0_linear_192_408" x1="10" y1="0" x2="10" y2="20.0002" gradientUnits="userSpaceOnUse">
<stop stop-color="#91C04A"/>
<stop offset="1" stop-color="#009EDB"/>
</linearGradient>
<clipPath id="clip0_192_408">
<rect width="20" height="20" fill="white"/>
</clipPath>
</defs>
</svg>
