<svg width="20" height="20" viewBox="0 0 20 20" fill="none" xmlns="http://www.w3.org/2000/svg">
<path d="M16.8417 7.21165C15.9967 6.58415 15.03 6.31165 14.06 6.41498C14.0967 6.32081 14.13 6.22831 14.1584 6.13665C14.5209 4.95915 14.3 3.73915 13.5342 2.70248C12.6959 1.56665 11.3084 0.833313 10 0.833313C8.69171 0.833313 7.30504 1.56748 6.46588 2.70248C5.70004 3.73915 5.47921 4.95915 5.84171 6.13665C5.87004 6.22831 5.90254 6.32081 5.94004 6.41498C4.96921 6.31081 4.00338 6.58415 3.15838 7.21165C2.03838 8.04415 1.31421 9.40748 1.31421 10.6841C1.31421 11.9608 2.03838 13.3241 3.15838 14.1566C3.88671 14.6975 4.70421 14.975 5.53838 14.975C5.91088 14.975 6.28671 14.92 6.65838 14.8075C7.35838 14.5958 8.02504 14.1383 8.60921 13.6133C8.48421 15.0316 8.21588 16.195 7.35504 16.7225H6.32504C5.65004 16.7225 5.10254 17.2691 5.10254 17.945C5.10254 18.6208 5.65004 19.1675 6.32504 19.1675H13.6742C14.3492 19.1675 14.8967 18.6208 14.8967 17.945C14.8967 17.2691 14.3492 16.7225 13.6742 16.7225H12.5892C11.73 16.1941 11.4625 15.0083 11.3342 13.5625C11.9309 14.1083 12.6184 14.5891 13.3409 14.8075C13.7134 14.92 14.0892 14.975 14.4609 14.975C15.2942 14.975 16.1125 14.6975 16.8409 14.1566C17.9609 13.3241 18.685 11.9608 18.685 10.6841C18.685 9.40748 17.9617 8.04415 16.8417 7.21165Z" fill="url(#paint0_linear_192_459)"/>
<defs>
<linearGradient id="paint0_linear_192_459" x1="9.99963" y1="0.833313" x2="9.99963" y2="19.1675" gradientUnits="userSpaceOnUse">
<stop stop-color="#91C04A"/>
<stop offset="1" stop-color="#009EDB"/>
</linearGradient>
</defs>
</svg>
