<svg width="18" height="18" viewBox="0 0 18 18" fill="none" xmlns="http://www.w3.org/2000/svg">
<path d="M9.01575 9C6.534 9 4.51575 6.98175 4.51575 4.5C4.51575 2.01825 6.53475 0 9.01575 0C11.4968 0 13.5158 2.01825 13.5158 4.5C13.5158 6.98175 11.4975 9 9.01575 9ZM10.5 13.638V10.5H6.73425V13.7078C7.1805 13.9672 7.48425 14.4458 7.48425 15C7.48425 15.8287 6.813 16.5 5.98425 16.5C5.1555 16.5 4.48425 15.8287 4.48425 15C4.48425 14.4465 4.788 13.968 5.23425 13.7078V10.5015C3.174 10.5105 1.5 12.1875 1.5 14.25V18H9V15.75C9 14.7735 9.62925 13.9485 10.5 13.638ZM12.75 10.5H12V13.638C12.8708 13.9485 13.5 14.7735 13.5 15.75V18H16.5V14.25C16.5 12.1823 14.8178 10.5 12.75 10.5ZM11.25 15C10.836 15 10.5 15.336 10.5 15.75V18H12V15.75C12 15.336 11.664 15 11.25 15Z" fill="url(#paint0_linear_268_49)"/>
<defs>
<linearGradient id="paint0_linear_268_49" x1="9" y1="0" x2="9" y2="18" gradientUnits="userSpaceOnUse">
<stop stop-color="#91C04A"/>
<stop offset="1" stop-color="#009EDB"/>
</linearGradient>
</defs>
</svg>
