<svg width="22" height="22" viewBox="0 0 22 22" fill="none" xmlns="http://www.w3.org/2000/svg">
<path d="M19.1766 15.9427C19.0199 16.3121 18.6477 16.5156 18.2682 16.4881C18.139 18.2884 17.8612 19.4187 17.8484 19.4737C17.7833 19.7322 17.6082 19.9513 17.369 20.0704C17.2865 20.1117 15.2927 21.0834 11.0009 21.0834C6.70905 21.0834 4.7153 20.1108 4.6328 20.0704C4.39355 19.9504 4.21847 19.7322 4.15339 19.4737C4.13964 19.4196 3.8628 18.2884 3.73355 16.489C3.35405 16.5165 2.9828 16.3139 2.82514 15.9445C2.62622 15.4789 2.84347 14.9399 3.30822 14.7419C3.3788 14.7116 4.7813 14.1277 6.90705 13.7106C7.38647 13.6162 7.87872 13.8041 8.17847 14.1909C9.07772 15.3533 10.0164 16.4478 11.0018 17.4185C11.9872 16.4478 12.9259 15.3533 13.8251 14.1909C14.124 13.8041 14.6162 13.6171 15.0966 13.7106C17.2223 14.1277 18.6248 14.7116 18.6954 14.7419C19.1601 14.9408 19.3765 15.4789 19.1785 15.9445L19.1766 15.9427ZM11 8.25002C9.08689 8.25002 7.5093 8.0456 6.41664 7.84485V8.25002C6.41664 11.3768 7.87322 12.8334 11 12.8334C14.1267 12.8334 15.5833 11.3768 15.5833 8.25002V7.84485C14.4906 8.0456 12.9131 8.25002 11 8.25002ZM17.3204 4.53477C17.2801 4.61544 16.9931 5.15169 16.3056 5.81444C15.5228 6.00969 13.5804 6.41577 11 6.41577C8.41955 6.41577 6.4918 6.01244 5.70347 5.81627C5.01047 5.15169 4.7208 4.61544 4.68047 4.53385C4.52097 4.21394 4.5613 3.82985 4.78497 3.55119C6.86947 0.945105 10.8331 0.915771 11.0009 0.915771C11.1686 0.915771 15.1323 0.945105 17.2168 3.55119C17.4405 3.83077 17.4808 4.21485 17.3213 4.53385L17.3204 4.53477ZM12.8177 3.23402C12.7783 3.10569 12.6665 3.01127 12.5326 2.99477C12.2219 2.95444 11.9451 2.9251 11.6856 2.90585C11.5711 2.62902 11.4446 2.3531 11.3061 2.07902C11.2475 1.96352 11.1283 1.88102 10.9991 1.89019C10.8698 1.88102 10.7506 1.9626 10.692 2.07902C10.5545 2.3531 10.4271 2.62902 10.3125 2.90585C10.0531 2.9251 9.77622 2.95444 9.46547 2.99477C9.33164 3.01219 9.22072 3.10569 9.18039 3.23402C9.14097 3.36235 9.18039 3.5026 9.2803 3.59244C9.48655 3.77577 9.68547 3.95269 9.8853 4.12227C9.79822 4.42569 9.72489 4.73002 9.66714 5.03344C9.6433 5.15994 9.69097 5.28919 9.79272 5.36894C9.89447 5.44869 10.032 5.46427 10.1493 5.40927C10.4601 5.26535 10.7387 5.11594 10.9981 4.95827C11.2576 5.11594 11.5362 5.26535 11.847 5.40927C11.9643 5.46427 12.1009 5.44777 12.2036 5.36894C12.3053 5.28919 12.3539 5.15994 12.3291 5.03344C12.2714 4.73002 12.1981 4.4266 12.111 4.12227C12.3108 3.95177 12.5097 3.77577 12.716 3.59244C12.8168 3.5026 12.8562 3.36327 12.8159 3.23402H12.8177Z" fill="url(#paint0_linear_192_463)"/>
<defs>
<linearGradient id="paint0_linear_192_463" x1="11.0016" y1="0.915771" x2="11.0016" y2="21.0834" gradientUnits="userSpaceOnUse">
<stop stop-color="#91C04A"/>
<stop offset="1" stop-color="#009EDB"/>
</linearGradient>
</defs>
</svg>
