<svg width="20" height="20" viewBox="0 0 20 20" fill="none" xmlns="http://www.w3.org/2000/svg">
<g clip-path="url(#clip0_192_497)">
<path d="M20 20H11.6667V18.3333C11.6667 16.955 12.7883 15.8333 14.1667 15.8333H17.5C18.8783 15.8333 20 16.955 20 18.3333V20ZM15.8333 15C14.6842 15 13.75 14.0658 13.75 12.9167C13.75 11.7675 14.6842 10.8333 15.8333 10.8333C16.9825 10.8333 17.9167 11.7675 17.9167 12.9167C17.9167 14.0658 16.9825 15 15.8333 15ZM10 18.3333C10 16.6425 11.0167 15.19 12.4667 14.5375C12.2283 14.045 12.0833 13.4992 12.0833 12.9167C12.0833 11.8125 12.5717 10.8292 13.3333 10.1417V2.5C13.3333 1.12167 12.2117 0 10.8333 0H2.5C1.12167 0 0 1.12167 0 2.5V20H10V18.3333ZM10 12.5H7.5V10.8333H10V12.5ZM5.83333 15.8333H3.33333V14.1667H5.83333V15.8333ZM5.83333 12.5H3.33333V10.8333H5.83333V12.5ZM4.16667 6.66667V5H5.83333V3.33333H7.5V5H9.16667V6.66667H7.5V8.33333H5.83333V6.66667H4.16667ZM7.5 14.1667H10V15.8333H7.5V14.1667Z" fill="url(#paint0_linear_192_497)"/>
</g>
<defs>
<linearGradient id="paint0_linear_192_497" x1="10" y1="0" x2="10" y2="20" gradientUnits="userSpaceOnUse">
<stop stop-color="#91C04A"/>
<stop offset="1" stop-color="#009EDB"/>
</linearGradient>
<clipPath id="clip0_192_497">
<rect width="20" height="20" fill="white"/>
</clipPath>
</defs>
</svg>
