<svg width="20" height="20" viewBox="0 0 20 20" fill="none" xmlns="http://www.w3.org/2000/svg">
<g clip-path="url(#clip0_381_41)">
<path d="M15 6.66667C13.1617 6.66667 11.6667 5.17167 11.6667 3.33333C11.6667 1.495 13.1617 0 15 0C16.8383 0 18.3333 1.495 18.3333 3.33333C18.3333 5.17167 16.8383 6.66667 15 6.66667ZM10 12.5C8.16167 12.5 6.66667 11.005 6.66667 9.16667C6.66667 7.32833 8.16167 5.83333 10 5.83333C11.8383 5.83333 13.3333 7.32833 13.3333 9.16667C13.3333 11.005 11.8383 12.5 10 12.5ZM5 6.66667C3.16167 6.66667 1.66667 5.17167 1.66667 3.33333C1.66667 1.495 3.16167 0 5 0C6.83833 0 8.33333 1.495 8.33333 3.33333C8.33333 5.17167 6.83833 6.66667 5 6.66667ZM19.1667 18.3333H15C15 15.5758 12.7575 13.3333 10 13.3333C7.2425 13.3333 5 15.5758 5 18.3333H0.833333C0.3725 18.3333 0 18.7058 0 19.1667C0 19.6275 0.3725 20 0.833333 20H19.1667C19.6275 20 20 19.6275 20 19.1667C20 18.7058 19.6275 18.3333 19.1667 18.3333ZM0.833333 14.1667H4.80333C5.26833 13.5875 5.82833 13.09 6.45833 12.6925C5.5575 11.7875 5 10.5417 5 9.16667C5 8.88333 5.02917 8.6075 5.075 8.3375C5.05 8.3375 5.02583 8.33333 5 8.33333C2.2425 8.33333 0 10.5758 0 13.3333C0 13.7942 0.3725 14.1667 0.833333 14.1667ZM20 13.3333C20 10.5758 17.7575 8.33333 15 8.33333C14.975 8.33333 14.9508 8.33667 14.925 8.3375C14.9708 8.60833 15 8.88417 15 9.16667C15 10.5417 14.4425 11.7875 13.5417 12.6925C14.1717 13.09 14.7317 13.5875 15.1967 14.1667H19.1667C19.6275 14.1667 20 13.7942 20 13.3333Z" fill="url(#paint0_linear_381_41)"/>
</g>
<defs>
<linearGradient id="paint0_linear_381_41" x1="10" y1="0" x2="10" y2="20" gradientUnits="userSpaceOnUse">
<stop stop-color="#91C04A"/>
<stop offset="1" stop-color="#009EDB"/>
</linearGradient>
<clipPath id="clip0_381_41">
<rect width="20" height="20" fill="white"/>
</clipPath>
</defs>
</svg>
