<svg width="20" height="20" viewBox="0 0 20 20" fill="none" xmlns="http://www.w3.org/2000/svg">
<g clip-path="url(#clip0_192_475)">
<path d="M9.58333 4.16667C10.7339 4.16667 11.6667 3.23393 11.6667 2.08333C11.6667 0.93274 10.7339 0 9.58333 0C8.43274 0 7.5 0.93274 7.5 2.08333C7.5 3.23393 8.43274 4.16667 9.58333 4.16667Z" fill="url(#paint0_linear_192_475)"/>
<path d="M18.3333 3.33333C19.2538 3.33333 20 2.58714 20 1.66667C20 0.746192 19.2538 0 18.3333 0C17.4128 0 16.6666 0.746192 16.6666 1.66667C16.6666 2.58714 17.4128 3.33333 18.3333 3.33333Z" fill="url(#paint1_linear_192_475)"/>
<path d="M18.6191 4.17333L10.7683 5H8.21247L5.0008 3.39417V1.25C5.0008 0.559167 4.44163 0 3.7508 0C3.05997 0 2.5008 0.559167 2.5008 1.25V3.65167C2.5008 4.44583 2.94163 5.16 3.65247 5.515L6.66747 7.0225V11.6825L5.13163 13.8333C5.0808 13.905 5.00913 13.9575 4.92413 13.9858L1.6883 15.0642C1.0333 15.2825 0.679967 15.99 0.898301 16.645C1.11497 17.3058 1.84163 17.6533 2.47913 17.435L5.71413 16.3567C6.30413 16.1608 6.8058 15.7892 7.1658 15.285L9.16663 12.5442V14.9458L6.55913 17.9258C6.10497 18.4458 6.15747 19.235 6.67663 19.69C7.19413 20.1433 7.98413 20.0933 8.4408 19.5725L11.15 16.4758C11.4825 16.0958 11.6666 15.6083 11.6666 15.1033V7.41917L18.8808 6.66C19.5675 6.58833 20.065 5.9725 19.9925 5.28583C19.9208 4.59917 19.3108 4.1 18.6183 4.17417L18.6191 4.17333Z" fill="url(#paint2_linear_192_475)"/>
</g>
<defs>
<linearGradient id="paint0_linear_192_475" x1="9.58333" y1="0" x2="9.58333" y2="4.16667" gradientUnits="userSpaceOnUse">
<stop stop-color="#91C04A"/>
<stop offset="1" stop-color="#009EDB"/>
</linearGradient>
<linearGradient id="paint1_linear_192_475" x1="18.3333" y1="0" x2="18.3333" y2="3.33333" gradientUnits="userSpaceOnUse">
<stop stop-color="#91C04A"/>
<stop offset="1" stop-color="#009EDB"/>
</linearGradient>
<linearGradient id="paint2_linear_192_475" x1="10.4166" y1="0" x2="10.4166" y2="19.9993" gradientUnits="userSpaceOnUse">
<stop stop-color="#91C04A"/>
<stop offset="1" stop-color="#009EDB"/>
</linearGradient>
<clipPath id="clip0_192_475">
<rect width="20" height="20" fill="white"/>
</clipPath>
</defs>
</svg>
