<svg width="20" height="20" viewBox="0 0 20 20" fill="none" xmlns="http://www.w3.org/2000/svg">
<path d="M3.66251 13.3842C3.82834 13.35 3.99751 13.3333 4.16667 13.3333H5.00001V0.0833333C3.06001 0.479167 1.66667 2.18667 1.66667 4.16667V14.1875C2.24917 13.7483 2.93751 13.4708 3.66251 13.3842ZM18.3333 15H4.16667C2.78584 15 1.66667 16.1192 1.66667 17.5C1.66667 18.8808 2.78584 20 4.16667 20H14.1667C16.4675 20 18.3333 18.1342 18.3333 15.8333V15ZM18.3333 4.16667V13.3333H6.66667V0H10.8333V8.62333C10.8333 9.1425 11.4925 9.365 11.8075 8.9525L12.9167 7.5L14.0258 8.9525C14.3408 9.365 15 9.1425 15 8.62333V0.0841667C16.9017 0.47 18.3333 2.15083 18.3333 4.16667Z" fill="url(#paint0_linear_188_241)"/>
<defs>
<linearGradient id="paint0_linear_188_241" x1="10" y1="0" x2="10" y2="20" gradientUnits="userSpaceOnUse">
<stop stop-color="#91C04A"/>
<stop offset="1" stop-color="#009EDB"/>
</linearGradient>
</defs>
</svg>
