<svg width="20" height="20" viewBox="0 0 20 20" fill="none" xmlns="http://www.w3.org/2000/svg">
<g clip-path="url(#clip0_192_392)">
<path d="M19.1666 20H14.9999C14.6666 20 14.3658 19.8017 14.2341 19.4958C14.1024 19.19 14.1658 18.8342 14.3958 18.5925C15.0558 17.8983 16.0349 17.5 17.0833 17.5C18.1316 17.5 19.1108 17.8983 19.7708 18.5925C20.0008 18.8342 20.0641 19.19 19.9324 19.4958C19.8008 19.8017 19.4999 20 19.1666 20ZM12.8491 19.4958C12.9808 19.19 12.9174 18.8342 12.6874 18.5925C12.0274 17.8983 11.0483 17.5 9.99994 17.5C8.95161 17.5 7.97244 17.8983 7.31244 18.5925C7.08244 18.8342 7.01911 19.19 7.15078 19.4958C7.28244 19.8017 7.58328 20 7.91661 20H12.0833C12.4166 20 12.7174 19.8017 12.8491 19.4958ZM5.76578 19.4958C5.89744 19.19 5.83411 18.8342 5.60411 18.5925C4.94411 17.8983 3.96494 17.5 2.91661 17.5C1.86828 17.5 0.88911 17.8983 0.22911 18.5925C-0.000889714 18.8342 -0.0642231 19.19 0.0674436 19.4958C0.19911 19.8017 0.499944 20 0.833277 20H4.99994C5.33328 20 5.63411 19.8017 5.76578 19.4958ZM2.91661 16.6667C3.83744 16.6667 4.58328 15.9208 4.58328 15C4.58328 14.0792 3.83744 13.3333 2.91661 13.3333C1.99578 13.3333 1.24994 14.0792 1.24994 15C1.24994 15.9208 1.99578 16.6667 2.91661 16.6667ZM9.99994 16.6667C10.9208 16.6667 11.6666 15.9208 11.6666 15C11.6666 14.0792 10.9208 13.3333 9.99994 13.3333C9.07911 13.3333 8.33328 14.0792 8.33328 15C8.33328 15.9208 9.07911 16.6667 9.99994 16.6667ZM17.0833 16.6667C18.0041 16.6667 18.7499 15.9208 18.7499 15C18.7499 14.0792 18.0041 13.3333 17.0833 13.3333C16.1624 13.3333 15.4166 14.0792 15.4166 15C15.4166 15.9208 16.1624 16.6667 17.0833 16.6667ZM3.74994 4.16667C4.90078 4.16667 5.83328 3.23417 5.83328 2.08333C5.83328 0.9325 4.90078 0 3.74994 0C2.59911 0 1.66661 0.9325 1.66661 2.08333C1.66661 3.23417 2.59911 4.16667 3.74994 4.16667ZM17.0833 0H6.86661C7.26578 0.595833 7.49994 1.3125 7.49994 2.08333C7.49994 2.52417 7.40994 2.94083 7.26994 3.33333H11.5674C12.7766 3.33333 13.8874 4.14833 14.1174 5.335C14.4274 6.93083 13.2074 8.33333 11.6658 8.33333H8.33244V10.8333C8.33244 11.2933 8.70578 11.6667 9.16578 11.6667H13.3324V10.8333C13.3324 10.3733 13.7058 10 14.1658 10H15.8324C16.2924 10 16.6658 10.3733 16.6658 10.8333V11.6667H17.0824C18.6933 11.6667 19.9991 10.3608 19.9991 8.75V2.91667C19.9991 1.30583 18.6941 0 17.0833 0ZM6.66661 10.8333V6.66667H11.6666C12.1274 6.66667 12.4999 6.29333 12.4999 5.83333C12.4999 5.37333 12.1274 5 11.6666 5H3.33328C1.49244 5 -5.63982e-05 6.4925 -5.63982e-05 8.33333V10.8333C-5.63982e-05 11.2933 0.373277 11.6667 0.833277 11.6667H5.83328C6.29328 11.6667 6.66661 11.2933 6.66661 10.8333Z" fill="url(#paint0_linear_192_392)"/>
</g>
<defs>
<linearGradient id="paint0_linear_192_392" x1="9.99994" y1="0" x2="9.99994" y2="20" gradientUnits="userSpaceOnUse">
<stop stop-color="#91C04A"/>
<stop offset="1" stop-color="#009EDB"/>
</linearGradient>
<clipPath id="clip0_192_392">
<rect width="20" height="20" fill="white"/>
</clipPath>
</defs>
</svg>
