<svg width="20" height="20" viewBox="0 0 20 20" fill="none" xmlns="http://www.w3.org/2000/svg">
<g clip-path="url(#clip0_381_32)">
<path d="M11.7717 10.93L13.55 9.15252C14.0983 8.60419 15.055 9.05169 14.955 9.82085C14.815 10.8984 14.3275 11.925 13.5358 12.7025C12.5917 13.6467 11.3358 14.1667 10 14.1667C8.66416 14.1667 7.40916 13.6467 6.46416 12.7025C5.51916 11.7584 5 10.5025 5 9.16669C5 7.83085 5.52 6.57585 6.46416 5.63085C7.24166 4.83919 8.26833 4.35169 9.34583 4.21169C10.1142 4.11169 10.5617 5.06835 10.0142 5.61669L8.23666 7.39502C8.23666 7.39502 8.23333 7.39752 8.2325 7.39835C7.25833 8.37335 7.25833 9.95919 8.2325 10.9342C9.2075 11.9092 10.7933 11.9092 11.7683 10.9342C11.77 10.9325 11.7708 10.9309 11.7717 10.93ZM16.0517 15.9634C17.9125 14.2842 19.0925 11.8642 19.0925 9.16669C19.0925 8.56169 19.0308 7.97085 18.9158 7.39919C18.8058 6.85335 18.1458 6.63752 17.7517 7.03085L16.905 7.87669C16.6867 8.09502 16.5575 8.39585 16.5825 8.70335C16.595 8.85585 16.6025 9.01002 16.6025 9.16585C16.6025 12.8475 13.6175 15.8325 9.93583 15.8325C6.23 15.8375 3.30666 12.82 3.25833 9.16585C3.29833 5.47835 6.27416 2.45752 9.99416 2.50252C10.2792 2.51252 10.8992 2.50169 11.3317 2.06919C11.7642 1.63669 12.0608 1.34002 12.0608 1.34002C12.4408 0.960021 12.2608 0.293354 11.7342 0.185021C10.1792 -0.134979 8.48416 -0.0624792 6.7275 0.578354C3.10416 1.90169 0.757498 5.31085 0.758332 9.16919C0.758332 11.865 1.8525 14.2492 3.88833 16.0592L2.21166 18.7225C1.96666 19.1117 2.08333 19.6259 2.4725 19.8717C2.85583 20.115 3.375 20.0034 3.62166 19.6109L5.24583 17.0309C6.61833 17.8509 8.21333 18.3334 9.925 18.3334C11.6867 18.3392 13.3075 17.8167 14.7183 16.9742L16.3783 19.6109C16.625 20.0034 17.1442 20.115 17.5275 19.8717C17.9167 19.6267 18.0342 19.1117 17.7883 18.7225L16.0517 15.9634ZM18.27 3.84752C18.1408 3.53585 17.8367 3.33335 17.5 3.33335H15.8333V1.66669C15.8333 1.33002 15.63 1.02585 15.3192 0.896688C15.0067 0.767521 14.6492 0.838354 14.4108 1.07752L12.7442 2.74419C12.5875 2.90085 12.5 3.11252 12.5 3.33335V5.48835L9.41083 8.57752C9.26 8.72835 9.16666 8.93669 9.16666 9.16669C9.16666 9.62669 9.54 10 10 10C10.23 10 10.4383 9.90669 10.5892 9.75585L13.6783 6.66669H15.8333C16.0542 6.66669 16.2667 6.57919 16.4225 6.42252L18.0892 4.75585C18.3275 4.51752 18.3992 4.15919 18.27 3.84752Z" fill="url(#paint0_linear_381_32)"/>
</g>
<defs>
<linearGradient id="paint0_linear_381_32" x1="9.92541" y1="-0.00012207" x2="9.92541" y2="19.9999" gradientUnits="userSpaceOnUse">
<stop stop-color="#91C04A"/>
<stop offset="1" stop-color="#009EDB"/>
</linearGradient>
<clipPath id="clip0_381_32">
<rect width="20" height="20" fill="white"/>
</clipPath>
</defs>
</svg>
