<?xml version="1.0" encoding="UTF-8" standalone="no"?>
<svg
   xmlns:dc="http://purl.org/dc/elements/1.1/"
   xmlns:cc="http://creativecommons.org/ns#"
   xmlns:rdf="http://www.w3.org/1999/02/22-rdf-syntax-ns#"
   xmlns:svg="http://www.w3.org/2000/svg"
   xmlns="http://www.w3.org/2000/svg"
   xmlns:sodipodi="http://sodipodi.sourceforge.net/DTD/sodipodi-0.dtd"
   xmlns:inkscape="http://www.inkscape.org/namespaces/inkscape"
   width="1282.3264"
   height="1062.3743"
   id="svg3255"
   version="1.1"
   inkscape:version="1.0 (4035a4f, 2020-05-01)"
   sodipodi:docname="HP_Invent_Shadow.svg">
  <defs
     id="defs3257" />
  <sodipodi:namedview
     id="base"
     pagecolor="#ffffff"
     bordercolor="#666666"
     borderopacity="1.0"
     inkscape:pageopacity="0.0"
     inkscape:pageshadow="2"
     inkscape:zoom="0.48817396"
     inkscape:cx="761.921"
     inkscape:cy="595.38174"
     inkscape:document-units="px"
     inkscape:current-layer="layer1"
     showgrid="false"
     inkscape:window-width="1440"
     inkscape:window-height="874"
     inkscape:window-x="0"
     inkscape:window-y="26"
     inkscape:window-maximized="0"
     inkscape:document-rotation="0"
     inkscape:pagecheckerboard="true" />
  <metadata
     id="metadata3260">
    <rdf:RDF>
      <cc:Work
         rdf:about="">
        <dc:format>image/svg+xml</dc:format>
        <dc:type
           rdf:resource="http://purl.org/dc/dcmitype/StillImage" />
        <dc:title />
      </cc:Work>
    </rdf:RDF>
  </metadata>
  <g
     inkscape:label="Layer 1"
     inkscape:groupmode="layer"
     id="layer1"
     transform="translate(0.2973817,-269.39749)">
    <path
       inkscape:connector-curvature="0"
       style="fill:#b3b3b3;fill-opacity:1"
       id="path2384-3"
       d="m 695.07802,1026.1895 c 176.8148,0 320.19378,-152.01148 320.19378,-339.49528 0,-187.4535 -143.37898,-339.465 -320.19378,-339.465 -6.596,0 -13.1615,0.2128 -19.6359,0.6383 l 17.4778,-54.47 h 507.28248 c 45.1688,0 81.8266,38.1168 81.8266,85.1094 v 619.3533 c 0,46.99248 -36.6578,85.07898 -81.8266,85.07898 H 675.44212 l 19.6359,-56.7497" />
    <path
       inkscape:connector-curvature="0"
       style="fill:#b3b3b3;fill-opacity:1"
       id="path2386-7"
       d="M 518.38482,293.39752 H 94.205618 c -45.1688,0 -81.7963,38.1168 -81.7963,85.1094 v 619.3533 c 0,46.99248 36.6275,85.07898 81.7963,85.07898 H 500.90702 l 23.9218,-63.1937 c -144.2301,-33.77018 -252.3494,-173.04558 -252.3494,-339.73848 0,-155.6591 94.289,-287.3963 224.2329,-331.6532 l 21.6725,-54.9563" />
    <path
       inkscape:connector-curvature="0"
       style="fill:#b3b3b3;fill-opacity:1"
       id="path2388-2"
       d="m 771.06852,803.17252 h -42.7067 l 80.2765,-225.388 h 42.7371 l -80.3069,225.388 m 107.3291,-271.5599 h -138.4547 l -196.3901,551.47858 h 85.0791 l 83.6808,-234.99308 h 85.1094 c 18.8152,0 42.5243,-5.6233 52.3726,-33.679 9.7876,-28.0861 62.981,-175.295 77.7232,-219.5215 14.7118,-44.2873 -20.4567,-63.285 -49.1203,-63.285 z" />
    <path
       inkscape:connector-curvature="0"
       style="fill:#b3b3b3;fill-opacity:1"
       id="path2390-1"
       d="m 664.31702,601.94952 -83.8023,235.0235 h -84.3192 l 92.1918,-258.611 h -43.4362 l -92.1917,258.611 h -85.0791 l 193.7759,-543.2716 h 85.079 l -85.3222,239.2487 h 57.297 c 41.2476,0 58.1782,32.3415 45.807,68.9994" />
    <path
       inkscape:connector-curvature="0"
       style="fill:#005699;fill-opacity:1"
       id="path2384"
       d="m 682.37132,1002.1895 c 176.8148,0 320.19378,-152.01148 320.19378,-339.49528 0,-187.4535 -143.37898,-339.46502 -320.19378,-339.46502 -6.596,0 -13.1615,0.21279 -19.6359,0.63834 l 17.4778,-54.47005 h 507.28248 c 45.1688,0 81.8266,38.11687 81.8266,85.10943 v 619.3533 c 0,46.99248 -36.6578,85.07898 -81.8266,85.07898 H 662.73542 l 19.6359,-56.7497" />
    <path
       inkscape:connector-curvature="0"
       style="fill:#005699;fill-opacity:1"
       id="path2386"
       d="M 505.67812,269.39749 H 81.498918 c -45.1688,0 -81.7962997,38.11687 -81.7962997,85.10943 v 619.3533 c 0,46.99248 36.6274997,85.07898 81.7962997,85.07898 H 488.20032 l 23.9218,-63.19368 c -144.2301,-33.7702 -252.3494,-173.0456 -252.3494,-339.7385 0,-155.659 94.289,-287.3963 224.2329,-331.65317 l 21.6725,-54.95636" />
    <path
       inkscape:connector-curvature="0"
       style="fill:#005699;fill-opacity:1"
       id="path2388"
       d="m 758.36182,779.17252 h -42.7067 l 80.2765,-225.388 h 42.7371 l -80.3069,225.388 m 107.3291,-271.5598 h -138.4547 l -196.3901,551.47848 h 85.0791 l 83.6808,-234.99308 h 85.1094 c 18.8152,0 42.5243,-5.6233 52.3726,-33.679 9.7876,-28.0861 62.981,-175.295 77.7232,-219.5215 14.7118,-44.2873 -20.4567,-63.2849 -49.1203,-63.2849 z" />
    <path
       inkscape:connector-curvature="0"
       style="fill:#005699;fill-opacity:1"
       id="path2390"
       d="m 651.61032,577.94952 -83.8023,235.0236 h -84.3192 l 92.1918,-258.6111 h -43.4362 l -92.1917,258.6111 h -85.0791 l 193.7759,-543.27167 h 85.079 l -85.3222,239.24867 h 57.297 c 41.2476,0 58.1782,32.3415 45.807,68.9994" />
    <path
       style="font-size:160px;line-height:1.25;font-family:Futura-Bold;-inkscape-font-specification:Futura-Bold;fill:#000000;stroke-width:0.533917"
       d="m 723.09271,1330.938 c -14.1975,-3.4792 -25.6669,-14.4466 -30.53706,-29.201 -1.84974,-5.604 -2.13918,-16.7505 -0.59704,-22.9951 4.12494,-16.704 17.06123,-29.1125 33.52585,-32.1582 9.64261,-1.7836 19.28643,-0.048 28.29869,5.0931 1.69807,0.9686 5.07755,3.651 7.51011,5.9611 8.12571,7.7162 12.58991,17.4012 13.12799,28.4807 l 0.28688,5.9061 H 744.97724 715.2464 l 0.36955,2.3826 c 2.01764,13.0085 12.37619,21.9754 21.86551,18.9282 3.41946,-1.0982 6.62039,-3.3693 8.55733,-6.0717 l 1.51557,-2.1143 h 11.87216 c 7.80735,0 11.8721,0.1858 11.8721,0.5423 0,0.8702 -2.69246,5.7736 -4.89087,8.9074 -2.7239,3.8831 -9.29436,9.789 -13.59408,12.2196 -5.94913,3.3627 -11.13958,4.7055 -18.98196,4.9102 -5.27466,0.1377 -7.66823,-0.039 -10.739,-0.791 z m 27.2662,-53.7443 c -0.96958,-3.0227 -3.81239,-7.5742 -6.11663,-9.7932 -3.18172,-3.064 -6.00857,-4.3829 -10.01976,-4.675 -2.70298,-0.197 -3.6232,0 -6.62895,1.4326 -1.99361,0.9487 -4.28825,2.5626 -5.35112,3.763 -1.8654,2.107 -4.79748,7.0591 -5.4902,9.2726 l -0.36977,1.1813 h 17.17769 17.1777 z m -649.12126,10.8937 v -39.637 h 12.21749 12.21747 v 39.637 39.6367 h -12.21747 -12.21749 z m 169.95873,0 v -39.637 h 12.21749 12.21747 l 0.002,4.0687 0.002,4.0688 2.96761,-3.2163 c 5.5097,-5.9713 10.89084,-8.2829 19.29048,-8.2867 14.08652,-0.013 24.6778,8.2023 29.11193,22.5629 0.85722,2.7762 0.98276,6.2105 1.15493,31.5955 l 0.19317,28.4808 h -12.24347 -12.24352 l -0.003,-26.3807 c -0.002,-16.7888 -0.21014,-27.1019 -0.57261,-28.3638 -0.7191,-2.5037 -3.28623,-5.3547 -6.16044,-6.8416 -1.84394,-0.954 -3.10382,-1.1491 -7.3819,-1.1439 -4.67739,0 -5.42695,0.1493 -8.03674,1.5414 -1.58302,0.8446 -3.5989,2.4829 -4.47974,3.6409 l -1.60128,2.1055 v 27.7212 27.721 h -12.21749 -12.21748 z m 226.70214,0.9586 c -9.25811,-21.2567 -17.00838,-39.0867 -17.2227,-39.622 -0.37241,-0.9301 0.14984,-0.9736 11.73213,-0.9736 h 12.12191 l 9.44481,21.5906 c 5.19465,11.8748 9.68915,21.5119 9.98783,21.4163 0.29863,-0.095 4.59347,-9.7524 9.54405,-21.4592 l 9.00109,-21.2851 12.10625,-0.1415 c 11.35894,-0.1327 12.08955,-0.084 11.83656,0.7874 -0.14829,0.511 -7.53743,18.0569 -16.42021,38.9909 -8.88283,20.934 -16.27,38.3571 -16.41599,38.7181 -0.19833,0.4903 -2.61921,0.6524 -9.57408,0.6415 l -9.30864,-0.015 z m 418.38085,-0.9586 v -39.637 h 11.94601 11.94595 v 3.9376 c 0,2.1657 0.19217,3.9374 0.4271,3.9374 0.23487,0 1.35134,-1.197 2.48095,-2.6597 2.41507,-3.1278 7.49068,-6.4633 11.72755,-7.707 6.32967,-1.8583 15.37464,-0.8919 21.99037,2.3494 6.42529,3.1478 12.61652,11.3356 15.07357,19.9343 1.11514,3.9028 1.18029,5.3968 1.38418,31.7883 l 0.21405,27.6934 h -12.25941 -12.2594 v -25.4362 c 0,-16.1145 -0.2133,-26.398 -0.58207,-28.0604 -1.25248,-5.6464 -5.75775,-9.0331 -12.52015,-9.412 -4.82048,-0.2699 -9.103,0.9627 -11.93331,3.4349 -3.93234,3.4347 -3.74343,1.8119 -3.74343,32.1482 v 27.3255 h -11.94595 -11.94601 z m 218.82863,9.1872 v -30.4494 h -4.0725 -4.0725 v -9.1873 -9.1875 h 4.0725 4.0725 v -13.9121 -13.9122 h 12.2174 12.2175 v 13.9122 13.9121 h 7.602 7.6021 v 9.1875 9.1873 h -7.6021 -7.602 v 30.4494 30.4495 h -12.2175 -12.2174 z m -1027.62585,-69.754 c -3.06775,-1.352 -5.48407,-3.4626 -7.2054,-6.2937 -1.300717,-2.1392 -1.482589,-2.9858 -1.482589,-6.9007 0,-3.9151 0.181872,-4.7617 1.482589,-6.9008 5.20924,-8.5675 17.13612,-9.887 23.89027,-2.6431 2.78546,2.9873 3.78756,5.4999 3.80664,9.5439 0.0192,4.076 -0.9159,6.4439 -3.74153,9.4742 -4.10981,4.4074 -11.47764,6.0439 -16.74998,3.7202 z"
       id="path24"
       sodipodi:nodetypes="csssssscccssscssssscssscsscccscccccccccccccccsssscccssssssccccccssscssscssssscsccccssssssscccssssscccccccccccccccccccccccccccccssssssss" />
  </g>
</svg>
