<svg width="196" height="43" viewBox="0 0 196 43" fill="none" xmlns="http://www.w3.org/2000/svg">
<path d="M24.6995 30.3869C24.6995 28.4473 23.4825 27.1549 20.9279 26.4494C18.494 25.7439 15.6959 25.0385 12.7148 24.2747C4.62446 22.2768 0.609462 18.6311 0.609462 13.343C0.792494 4.93762 5.9641 0.823264 16.1866 0.883464C25.9223 0.883464 30.9693 4.99781 31.4541 13.2847H26.709C25.9077 13.3068 25.1184 13.0938 24.4448 12.674C23.7712 12.2543 23.245 11.6474 22.9354 10.9331C21.5373 8.64176 19.0411 7.52428 15.4525 7.52428C11.0715 7.5826 8.88287 9.17037 8.69984 12.2274C8.69984 14.7539 11.3168 16.5768 16.7299 17.7526C20.0633 18.5029 23.3528 19.4245 26.5843 20.514C31.2068 22.0416 33.3967 25.3332 33.154 30.3887C32.6672 38.2052 27.1918 42.0844 16.7299 42.0844C6.26786 42.0844 0.243393 37.6766 0 28.9778H8.21305C8.51875 33.2087 11.3148 35.3251 16.7299 35.3251C22.1449 35.3251 24.7599 33.679 24.6975 30.3869H24.6995Z" fill="#483888"/>
<path d="M51.646 42.197C41.9103 41.9035 37.0425 36.4366 37.0425 25.8565C37.0425 15.2764 41.9707 9.98818 51.7648 9.92798C61.986 9.92798 66.789 16.0013 66.1737 28.1479H45.3801C45.6839 32.9093 47.814 35.3192 51.7667 35.3192C53.7482 35.2744 55.6301 34.4712 56.9987 33.0861C57.3442 32.7196 57.7679 32.4298 58.2405 32.2369C58.7132 32.044 59.2236 31.9525 59.7364 31.9687H65.6986C63.9345 38.553 59.5534 42.197 51.646 42.197ZM45.5009 22.5662H57.6063C57.1195 18.4519 55.1119 16.3355 51.6441 16.3355C48.1762 16.3355 46.1083 18.4519 45.4989 22.5662H45.5009Z" fill="#483888"/>
<path d="M84.6774 42.197C74.9416 42.197 69.9569 36.7902 69.7116 26.0916C69.7116 15.4532 74.6399 10.1011 84.5547 9.92798C92.3433 9.92798 96.9658 13.2785 98.3638 20.036H89.5433C89.1377 19.0313 88.4127 18.1769 87.4725 17.5958C86.5322 17.0146 85.4254 16.7368 84.3113 16.8021C80.0529 16.8021 77.9247 19.9175 77.9247 26.088C77.9247 32.2584 80.1756 35.3736 84.6774 35.3058C85.609 35.3038 86.5287 35.1024 87.3704 34.7163C88.212 34.3303 88.9547 33.769 89.5452 33.0728C89.8979 32.7151 90.3229 32.4314 90.7939 32.2392C91.2649 32.047 91.7717 31.9503 92.2829 31.9553H98.3677C97.8371 35.0113 96.1334 37.7617 93.5965 39.6576C91.0596 41.5535 87.8762 42.4555 84.6813 42.1837L84.6774 42.197Z" fill="#483888"/>
<path d="M129.693 29.0946C129.693 34.4449 128.295 37.9704 125.435 39.6748C122.549 41.2783 119.273 42.1099 115.945 42.0844C112.695 42.1211 109.512 41.1985 106.82 39.4396C104.022 37.7352 102.622 34.3245 102.622 29.0928V10.4044H110.713V30.6806C110.713 34.1496 112.537 35.854 116.186 35.854C119.835 35.854 121.659 34.1514 121.659 30.6806V14.2836C121.562 13.7637 121.594 13.229 121.754 12.7236C121.913 12.2183 122.195 11.7569 122.575 11.3777C122.956 10.9985 123.425 10.7124 123.943 10.5431C124.461 10.3739 125.013 10.3264 125.554 10.4044H129.691V29.0946H129.693Z" fill="#483888"/>
<path d="M133.22 25.4527C133.463 15.4032 138.999 10.4028 149.77 10.4028H150.927V18.5147H148.189C143.687 18.5147 141.437 20.8061 141.437 25.3342V41.4958H133.22V25.4527Z" fill="#483888"/>
<path d="M160.108 1.53094C160.644 1.45067 161.191 1.49473 161.706 1.65931C162.221 1.82389 162.688 2.1043 163.068 2.47753C163.448 2.85075 163.731 3.30604 163.894 3.80578C164.056 4.30553 164.093 4.83542 164.002 5.35174V7.64312H155.912V1.53094H160.108ZM160.108 10.4066C160.637 10.3301 161.178 10.3746 161.687 10.5366C162.196 10.6986 162.658 10.9736 163.037 11.3395C163.415 11.7054 163.7 12.1519 163.868 12.6434C164.035 13.1348 164.081 13.6574 164.002 14.1691V41.4978H155.912V10.4066H160.108Z" fill="#483888"/>
<path d="M191.86 41.4978C189.182 41.3209 187.845 40.0868 187.845 37.6186V21.6281C187.662 18.3943 185.837 16.8084 182.249 16.8084C178.66 16.8084 176.836 18.3961 176.773 21.6281V41.4941H168.56V23.2159C168.56 14.3402 173.183 9.93262 182.369 9.93262C191.556 9.93262 196.056 14.3402 195.999 23.2159V41.4941H191.864L191.86 41.4978Z" fill="#483888"/>
<path d="M133.241 18.9937V10.34C133.241 10.3358 133.242 10.3317 133.244 10.3279C133.245 10.324 133.248 10.3205 133.251 10.3175C133.254 10.3146 133.258 10.312 133.262 10.3104C133.266 10.3088 133.27 10.3081 133.274 10.3081H142.465C142.504 10.3081 142.508 10.3551 142.465 10.3683C140.273 10.8771 138.264 11.9484 136.651 13.4689C135.037 14.9895 133.879 16.9029 133.298 19.007C133.29 19.0352 133.241 19.0332 133.241 18.9937Z" fill="#ED7B22"/>
</svg>
